<?xml version="1.0" standalone="no"?>
<!DOCTYPE svg PUBLIC "-//W3C//DTD SVG 20010904//EN"
 "http://www.w3.org/TR/2001/REC-SVG-20010904/DTD/svg10.dtd">
<svg version="1.0" xmlns="http://www.w3.org/2000/svg"
 width="65.000000pt" height="64.000000pt" viewBox="0 0 65.000000 64.000000"
 preserveAspectRatio="xMidYMid meet">

<g transform="translate(0.000000,64.000000) scale(0.100000,-0.100000)"
fill="#000000" stroke="none">
<path d="M337 616 c-67 -25 -64 -33 6 -15 78 19 117 -14 86 -74 -19 -36 -92
-107 -111 -107 -19 0 -68 65 -68 92 0 28 37 41 106 36 77 -5 64 8 -18 17 -44
5 -64 3 -81 -8 -21 -14 -26 -13 -48 4 -27 21 -61 24 -88 9 -22 -11 -51 -80
-50 -118 0 -22 3 -18 14 18 8 26 25 56 39 69 20 19 27 21 46 11 22 -12 22 -12
-18 -53 -48 -51 -62 -76 -62 -115 0 -23 -5 -31 -24 -36 -36 -9 -56 -33 -56
-69 0 -42 20 -69 78 -108 l47 -32 -48 50 c-59 62 -67 100 -23 121 30 15 80 9
149 -17 33 -13 35 -42 7 -88 -36 -60 -82 -38 -123 57 -9 19 -16 30 -16 23 -2
-28 47 -119 71 -132 22 -11 25 -18 21 -51 -4 -30 -1 -42 17 -60 19 -19 30 -22
71 -17 26 3 61 13 76 22 15 9 19 13 8 10 -46 -15 -115 -17 -130 -5 -22 18 -20
61 3 54 14 -5 14 -4 3 4 -12 9 -10 16 12 46 15 19 40 44 57 56 34 24 56 16 84
-31 34 -58 12 -82 -77 -82 -44 0 -55 -2 -37 -7 44 -14 105 -11 129 6 21 15 25
15 32 2 5 -9 22 -21 39 -28 25 -11 34 -10 56 5 31 20 54 72 53 117 l-1 33 -8
-32 c-22 -95 -76 -126 -116 -66 -25 37 -49 126 -41 148 8 19 66 29 100 16 42
-16 35 -72 -16 -128 -11 -13 -18 -25 -15 -28 7 -8 65 65 77 97 5 14 7 35 4 47
-4 17 -1 21 16 21 12 0 33 11 47 26 20 19 24 31 19 52 -7 30 -44 73 -90 105
-22 16 -18 8 18 -31 51 -56 61 -94 28 -112 -29 -15 -81 -12 -141 7 -51 16 -52
17 -45 51 19 103 80 107 130 10 19 -37 25 -44 20 -23 -12 52 -37 95 -64 109
-21 12 -25 20 -23 52 2 22 -3 47 -10 57 -18 24 -75 30 -121 13z m-121 -131 c8
-20 17 -55 20 -79 6 -39 4 -44 -17 -49 -64 -17 -109 -3 -109 35 0 37 59 128
82 128 5 0 16 -16 24 -35z m118 -131 c18 -7 22 -49 6 -59 -6 -3 -19 -3 -30 0
-22 7 -28 50 -7 58 6 3 13 6 14 6 1 1 8 -2 17 -5z"/>
</g>
</svg>
